<?xml version="1.0" encoding="UTF-8" standalone="no"?>
<!-- Created with Inkscape (http://www.inkscape.org/) -->

<svg
   xmlns:dc="http://purl.org/dc/elements/1.1/"
   xmlns:cc="http://creativecommons.org/ns#"
   xmlns:rdf="http://www.w3.org/1999/02/22-rdf-syntax-ns#"
   xmlns:svg="http://www.w3.org/2000/svg"
   xmlns="http://www.w3.org/2000/svg"
   xmlns:sodipodi="http://sodipodi.sourceforge.net/DTD/sodipodi-0.dtd"
   xmlns:inkscape="http://www.inkscape.org/namespaces/inkscape"
   width="512"
   height="512"
   viewBox="0 0 135.46666 135.46667"
   version="1.1"
   id="svg8"
   inkscape:version="0.92.2 5c3e80d, 2017-08-06"
   sodipodi:docname="waypoint-aeon.svg">
  <defs
     id="defs2" />
  <sodipodi:namedview
     id="base"
     pagecolor="#ffffff"
     bordercolor="#666666"
     borderopacity="1.0"
     inkscape:pageopacity="0.0"
     inkscape:pageshadow="2"
     inkscape:zoom="0.42426407"
     inkscape:cx="270.37404"
     inkscape:cy="184.39401"
     inkscape:document-units="mm"
     inkscape:current-layer="layer1"
     showgrid="false"
     inkscape:window-width="1280"
     inkscape:window-height="687"
     inkscape:window-x="0"
     inkscape:window-y="1"
     inkscape:window-maximized="1"
     units="px" />
  <metadata
     id="metadata5">
    <rdf:RDF>
      <cc:Work
         rdf:about="">
        <dc:format>image/svg+xml</dc:format>
        <dc:type
           rdf:resource="http://purl.org/dc/dcmitype/StillImage" />
        <dc:title></dc:title>
      </cc:Work>
    </rdf:RDF>
  </metadata>
  <g
     inkscape:label="Capa 1"
     inkscape:groupmode="layer"
     id="layer1"
     transform="translate(0,-161.53332)">
    <g
       id="g3764"
       transform="matrix(1.1228354,0,0,1.1228354,-57.891372,67.44239)">
      <path
         style="fill:#e6a42f;stroke-width:0.26458335"
         d="M 106.6599,195.29606 C 89.042846,168.5773 77.729244,146.30585 74.436084,131.8617 c -0.311439,-1.366 -0.490858,-3.63195 -0.57608,-7.27554 -0.109572,-4.68471 -0.05856,-5.61031 0.444725,-8.06979 1.598739,-7.81273 4.930801,-13.98987 10.563397,-19.582973 4.63895,-4.606418 8.958631,-7.316705 14.709699,-9.229271 4.449755,-1.479804 7.411725,-1.958696 12.170835,-1.967787 4.6473,-0.0089 7.95958,0.493854 11.94629,1.813192 13.05355,4.319862 22.54395,14.926029 25.51841,28.518559 0.69029,3.15445 0.96719,9.9522 0.52185,12.81119 -1.90711,12.24322 -11.64787,32.6887 -28.01297,58.79814 -5.25503,8.38406 -9.58858,14.82854 -9.97136,14.82854 -0.18542,0 -2.47637,-3.24446 -5.09098,-7.2099 z m 8.52834,-57.21803 c 7.81289,-1.64335 12.49371,-9.37553 10.4848,-17.31969 -0.311,-1.22983 -0.95184,-2.88612 -1.42408,-3.68066 -3.27611,-5.5119 -10.24571,-8.11139 -16.65185,-6.21073 -5.04353,1.49638 -8.873212,5.80766 -9.743805,10.96911 -1.722877,10.21437 7.024875,18.41058 17.334935,16.24197 z"
         id="path3768"
         inkscape:connector-curvature="0" />
      <path
         style="fill:#8e8e8b;stroke-width:0.26458335"
         d="M 106.6599,195.29606 C 89.042846,168.5773 77.729244,146.30585 74.436084,131.8617 c -0.311439,-1.366 -0.490858,-3.63195 -0.57608,-7.27554 -0.109572,-4.68471 -0.05856,-5.61031 0.444725,-8.06979 1.598739,-7.81273 4.930801,-13.98987 10.563397,-19.582973 4.63895,-4.606418 8.958631,-7.316705 14.709699,-9.229271 4.449755,-1.479804 7.411725,-1.958696 12.170835,-1.967787 4.6473,-0.0089 7.95958,0.493854 11.94629,1.813192 13.05355,4.319862 22.54395,14.926029 25.51841,28.518559 0.69029,3.15445 0.96719,9.9522 0.52185,12.81119 -1.90711,12.24322 -11.64787,32.6887 -28.01297,58.79814 -5.25503,8.38406 -9.58858,14.82854 -9.97136,14.82854 -0.18542,0 -2.47637,-3.24446 -5.09098,-7.2099 z m 9.2866,-10.71562 c 15.41349,-23.47497 25.73368,-43.9136 27.80304,-55.06257 0.5285,-2.84736 0.52899,-8.28442 0.001,-11.31204 -1.16953,-6.70655 -4.77057,-13.37516 -9.70768,-17.97722 C 122.3992,89.375172 104.86816,88.51035 92.134347,98.161228 85.935408,102.85937 81.452554,110.0645 79.997785,117.66789 c -0.587213,3.06909 -0.523356,9.00991 0.13343,12.4133 1.924285,9.97143 9.767924,26.40147 21.817885,45.70185 4.22263,6.76338 9.49528,14.55208 9.8512,14.55208 0.20221,0 2.06798,-2.58961 4.14614,-5.75468 z m -5.65305,-41.53392 c -2.40019,-0.15948 -5.22014,-0.9356 -7.67292,-2.11178 -2.12377,-1.01841 -2.866368,-1.55886 -4.788884,-3.48528 -1.821916,-1.82561 -2.493904,-2.72814 -3.372085,-4.52892 -0.603208,-1.23693 -1.297144,-3.02287 -1.542077,-3.96875 -0.596215,-2.30246 -0.596215,-6.95796 0,-9.26042 1.604259,-6.19532 6.316814,-11.13139 12.569376,-13.16555 2.79422,-0.90905 8.03596,-1.13081 11.05942,-0.46789 7.05198,1.5462 12.44983,6.60074 14.27688,13.36886 0.63536,2.35362 0.6359,7.43825 0.001,9.77428 -2.44659,9.00227 -10.60611,14.50486 -20.53073,13.84545 z m 4.89479,-4.96849 c 7.81289,-1.64335 12.49371,-9.37553 10.4848,-17.31969 -0.311,-1.22983 -0.95184,-2.88612 -1.42408,-3.68066 -3.27611,-5.5119 -10.24571,-8.11139 -16.65185,-6.21073 -5.04353,1.49638 -8.873212,5.80766 -9.743805,10.96911 -1.722877,10.21437 7.024875,18.41058 17.334935,16.24197 z"
         id="path3766"
         inkscape:connector-curvature="0" />
    </g>
  </g>
</svg>
